<?xml version="1.0" encoding="UTF-8"?> <svg xmlns="http://www.w3.org/2000/svg" width="50" height="50" viewBox="0 0 50 50" fill="none"><rect width="50" height="50" rx="25" fill="#B0C47A"></rect><path d="M35.2315 19.9444H14.7685C13.242 19.9444 12 18.7024 12 17.1759V15.9722C12 14.4457 13.242 13.2037 14.7685 13.2037H35.2315C36.758 13.2037 38 14.4457 38 15.9722V17.1759C38 18.7024 36.758 19.9444 35.2315 19.9444Z" fill="white"></path><path d="M25 32.463C26.5955 32.463 27.8889 31.1696 27.8889 29.5741C27.8889 27.9786 26.5955 26.6852 25 26.6852C23.4045 26.6852 22.1111 27.9786 22.1111 29.5741C22.1111 31.1696 23.4045 32.463 25 32.463Z" fill="white"></path><path d="M35.2916 21.8704H14.7083C14.5421 21.8704 14.4073 22.0051 14.4073 22.1713V25.6197C14.4073 31.4748 19.1148 36.2984 24.9699 36.3147C30.8244 36.3311 35.5925 31.573 35.5925 25.7222V22.1713C35.5925 22.0051 35.4578 21.8704 35.2916 21.8704ZM24.9999 34.3889C22.3451 34.3889 20.1851 32.229 20.1851 29.5741C20.1851 26.9192 22.3451 24.7593 24.9999 24.7593C27.6548 24.7593 29.8148 26.9192 29.8148 29.5741C29.8148 32.229 27.6548 34.3889 24.9999 34.3889Z" fill="white"></path></svg> 