<?xml version="1.0" encoding="UTF-8"?> <svg xmlns="http://www.w3.org/2000/svg" width="40" height="40" viewBox="0 0 40 40" fill="none"><rect width="40" height="40" rx="20" fill="#A6D26E"></rect><path fill-rule="evenodd" clip-rule="evenodd" d="M17.2222 11C14.4608 11 12.2222 13.2386 12.2222 16V16.125C12.2222 17.5509 12.8191 18.8374 13.7767 19.7483C11.527 20.9718 10 23.3562 10 26.0972V27.3125C10 28.2445 10.7555 29 11.6875 29H22.757C23.689 29 24.4445 28.2445 24.4445 27.3125V26.0972C24.4445 23.3562 22.9175 20.9718 20.6678 19.7483C21.6253 18.8374 22.2222 17.5509 22.2222 16.125V16C22.2222 13.2386 19.9837 11 17.2222 11Z" fill="white"></path><path d="M25.5556 28C25.5556 28.5523 26.0033 29 26.5556 29H28.0001C29.1046 29 30.0001 28.1046 30.0001 27V26.1875C30.0001 23.4045 28.4646 20.9847 26.2047 19.749C27.1732 18.8257 27.7778 17.5156 27.7778 16.0625C27.7778 13.2666 25.5392 11 22.7778 11C22.025 11 21.8247 11.9225 22.2497 12.5439C22.933 13.5429 23.3334 14.7553 23.3334 16.0625C23.3334 17.0032 23.1256 17.8953 22.7545 18.6938C22.5346 19.1671 22.6264 19.7434 23.0002 20.1076C24.5745 21.6419 25.5556 23.7982 25.5556 26.1875V28Z" fill="white"></path></svg> 