<?xml version="1.0" encoding="UTF-8"?> <svg xmlns="http://www.w3.org/2000/svg" width="40" height="40" viewBox="0 0 40 40" fill="none"><rect width="40" height="40" rx="20" fill="#4B95D9"></rect><path fill-rule="evenodd" clip-rule="evenodd" d="M9 16.5C9 15.3954 9.89543 14.5 11 14.5H26C27.1046 14.5 28 15.3954 28 16.5V23.5C28 24.6046 27.1046 25.5 26 25.5H17.1969C16.1569 25.5 15.2062 26.0876 14.7411 27.0178L14.6445 27.2109C14.4067 27.6866 13.7124 27.6373 13.5443 27.1328C13.2192 26.1577 12.3067 25.5 11.2789 25.5H11.0398C9.91323 25.5 9 24.5868 9 23.4602V16.5ZM12 18.5C12 17.9477 12.4477 17.5 13 17.5H24C24.5523 17.5 25 17.9477 25 18.5C25 19.0523 24.5523 19.5 24 19.5H13C12.4477 19.5 12 19.0523 12 18.5ZM13 20.5C12.4477 20.5 12 20.9477 12 21.5C12 22.0523 12.4477 22.5 13 22.5H20C20.5523 22.5 21 22.0523 21 21.5C21 20.9477 20.5523 20.5 20 20.5H13Z" fill="white"></path><path d="M28.1464 13.6464C27.9512 13.8417 27.9512 14.1583 28.1464 14.3536C28.3417 14.5488 28.6583 14.5488 28.8536 14.3536L28.1464 13.6464ZM29.8536 13.3536C30.0488 13.1583 30.0488 12.8417 29.8536 12.6464C29.6583 12.4512 29.3417 12.4512 29.1464 12.6464L29.8536 13.3536ZM29.5 16C29.2239 16 29 16.2239 29 16.5C29 16.7761 29.2239 17 29.5 17V16ZM30.5 17C30.7761 17 31 16.7761 31 16.5C31 16.2239 30.7761 16 30.5 16V17ZM26 13C26 13.2761 26.2239 13.5 26.5 13.5C26.7761 13.5 27 13.2761 27 13H26ZM27 12C27 11.7239 26.7761 11.5 26.5 11.5C26.2239 11.5 26 11.7239 26 12H27ZM28.8536 14.3536L29.8536 13.3536L29.1464 12.6464L28.1464 13.6464L28.8536 14.3536ZM29.5 17H30.5V16H29.5V17ZM27 13V12H26V13H27Z" fill="white"></path></svg> 