<?xml version="1.0" encoding="UTF-8"?> <svg xmlns="http://www.w3.org/2000/svg" width="40" height="40" viewBox="0 0 40 40" fill="none"><rect width="40" height="40" rx="20" fill="#E44343"></rect><path d="M28.6574 15.7223H11.3426C10.0509 15.7223 9 14.6714 9 13.3797V12.3611C9 11.0695 10.0509 10.0186 11.3426 10.0186H28.6574C29.9491 10.0186 31 11.0695 31 12.3611V13.3797C31 14.6714 29.9491 15.7223 28.6574 15.7223Z" fill="white"></path><path d="M20 26.3149C21.35 26.3149 22.4444 25.2205 22.4444 23.8705C22.4444 22.5204 21.35 21.426 20 21.426C18.65 21.426 17.5555 22.5204 17.5555 23.8705C17.5555 25.2205 18.65 26.3149 20 26.3149Z" fill="white"></path><path d="M28.7083 17.3518H11.2916C11.151 17.3518 11.037 17.4658 11.037 17.6064V20.5243C11.037 25.4787 15.0202 29.5602 19.9745 29.574C24.9284 29.5878 28.9629 25.5617 28.9629 20.6111V17.6064C28.9629 17.4658 28.8489 17.3518 28.7083 17.3518ZM20 27.9444C17.7535 27.9444 15.9259 26.1168 15.9259 23.8703C15.9259 21.6239 17.7535 19.7963 20 19.7963C22.2464 19.7963 24.074 21.6239 24.074 23.8703C24.074 26.1168 22.2464 27.9444 20 27.9444Z" fill="white"></path></svg> 