<?xml version="1.0" encoding="UTF-8"?> <svg xmlns="http://www.w3.org/2000/svg" width="50" height="50" viewBox="0 0 50 50" fill="none"><rect width="50" height="50" rx="25" fill="#7038A9"></rect><path d="M35.2951 36.8358L31.1332 30.149C32.5673 28.6057 33.3789 26.5592 33.3789 24.4414V20.3789C33.3789 15.7588 29.6201 12 25 12C20.3799 12 16.6211 15.7588 16.6211 20.3789V24.4414C16.6211 26.5592 17.4327 28.6057 18.8668 30.149L14.7049 36.8358C14.5587 37.0707 14.5514 37.3663 14.6857 37.6082C14.82 37.85 15.0749 38 15.3516 38H34.6484C34.9251 38 35.18 37.85 35.3143 37.6082C35.4486 37.3663 35.4413 37.0707 35.2951 36.8358ZM26.9673 28.9629C26.3914 29.2624 25.6814 29.3037 25 29.3037C24.3186 29.3037 23.6086 29.2624 23.0327 28.9629C22.5402 28.7067 21.9531 28.1548 21.9531 26.9805C21.9531 25.2066 23.2561 23.2227 25 23.2227C26.7439 23.2227 28.0469 25.2066 28.0469 26.9805C28.0469 28.1548 27.4598 28.7067 26.9673 28.9629ZM28.0469 22.9688C27.4703 22.9688 26.6214 22.7671 25.8839 22.455C25.3222 22.2173 24.6778 22.2172 24.116 22.455C23.3786 22.7671 22.5296 22.9688 21.9531 22.9688C20.5531 22.9688 19.4141 21.8297 19.4141 20.4297C19.4141 19.0296 20.5531 17.8906 21.9531 17.8906C22.5296 17.8906 23.3785 18.0923 24.1159 18.4043C24.6777 18.642 25.3222 18.6421 25.884 18.4043C26.6215 18.0923 27.4704 17.8906 28.0469 17.8906C29.4469 17.8906 30.5859 19.0296 30.5859 20.4297C30.5859 21.8297 29.4469 22.9688 28.0469 22.9688Z" fill="white"></path></svg> 