<?xml version="1.0" encoding="UTF-8"?> <svg xmlns="http://www.w3.org/2000/svg" width="50" height="50" viewBox="0 0 50 50" fill="none"><rect width="50" height="50" rx="25" fill="#3FAEDE"></rect><path d="M34.0861 21.7213L34.0469 21.6682L34.0392 21.6527L30.4789 16.3675L26.9186 21.6528L26.9111 21.6676L26.8716 21.7214C26.3003 22.4951 25.9984 23.4143 25.9984 24.3797C25.9984 26.8503 28.0083 28.8602 30.4788 28.8602C32.9494 28.8602 34.9593 26.8502 34.9593 24.3797C34.9594 23.4142 34.6574 22.4949 34.0861 21.7213Z" fill="white"></path><path d="M30.479 30.3868C27.1666 30.3868 24.4719 27.692 24.4719 24.3797C24.4719 23.0921 24.873 21.8651 25.632 20.8303L27.9725 17.3559L24.3644 12L16.847 23.1594C15.6651 24.7678 15.0405 26.6748 15.0405 28.676C15.0405 33.8173 19.2232 38 24.3645 38C29.2359 38 33.2461 34.2447 33.6537 29.477C32.7319 30.0532 31.6438 30.3868 30.479 30.3868Z" fill="white"></path></svg> 