<?xml version="1.0" encoding="UTF-8"?> <svg xmlns="http://www.w3.org/2000/svg" width="50" height="50" viewBox="0 0 50 50" fill="none"><rect width="50" height="50" rx="25" fill="#E06F30"></rect><path d="M30.7491 20.1156C26.1083 17.2921 28.2846 13.3069 28.378 13.1413C28.5135 12.9055 28.513 12.6155 28.3768 12.3802C28.2407 12.1449 27.9894 12 27.7175 12C25.3286 12 23.458 12.6787 22.1575 14.0175C19.9354 16.3049 20.0385 19.865 20.0825 21.3852C20.0874 21.5537 20.0916 21.6992 20.0916 21.8073C20.0916 22.936 20.2727 23.9781 20.4325 24.8975C20.5355 25.49 20.6244 26.0017 20.6402 26.4039C20.6571 26.8346 20.5785 26.9332 20.5752 26.9373C20.5639 26.9506 20.4705 27.0003 20.2179 27.0003C19.9297 27.0003 19.7174 26.9061 19.5291 26.6951C18.794 25.8708 18.7432 23.6201 18.8837 22.3956C18.9089 22.1797 18.8406 21.9634 18.696 21.8011C18.5515 21.6388 18.3445 21.546 18.1272 21.546C16.1495 21.546 14.6717 24.7801 14.6717 27.6718C14.6717 29.0312 14.9451 30.3628 15.4844 31.6297C16.0057 32.8545 16.7491 33.9598 17.694 34.915C19.6617 36.9044 22.2563 38 24.9996 38C27.7541 38 30.348 36.9199 32.3036 34.9588C34.2541 33.0026 35.3283 30.4148 35.3283 27.6717C35.3283 24.1718 32.5898 21.2354 30.7491 20.1156Z" fill="white"></path></svg> 