<?xml version="1.0" encoding="UTF-8"?> <svg xmlns="http://www.w3.org/2000/svg" width="50" height="50" viewBox="0 0 50 50" fill="none"><rect width="50" height="50" rx="25" fill="#5F56C6"></rect><path d="M35.2391 38H14.7608C13.3495 38 12.201 36.8514 12.201 35.4402V14.5599C12.201 13.1487 13.3495 12.0001 14.7608 12.0001H35.239C36.6501 12.0001 37.7988 13.1487 37.7988 14.5599V35.4402C37.7989 36.8514 36.6502 38 35.2391 38ZM25 15.6974C19.8702 15.6974 15.6971 19.8705 15.6971 25.0001C15.6971 30.13 19.8702 34.3025 25 34.3025C30.1297 34.3025 34.3025 30.1295 34.3025 25.0001C34.3025 19.8697 30.1296 15.6974 25 15.6974Z" fill="white"></path><path d="M25.0001 32.5959C20.8117 32.5959 17.4038 29.1885 17.4038 25.0001C17.4038 20.8108 20.8118 17.404 25.0001 17.404C29.1886 17.404 32.596 20.8114 32.596 25.0001C32.596 29.1891 29.1886 32.5959 25.0001 32.5959ZM22.8669 24.8111C22.8669 24.34 22.4847 23.9579 22.0137 23.9579C21.5426 23.9579 21.1604 24.3399 21.1604 24.8111V25.3555C21.1604 25.8263 21.5427 26.2086 22.0137 26.2086C22.4847 26.2086 22.8669 25.8264 22.8669 25.3555V24.8111ZM29.1241 24.8111C29.1241 24.34 28.7419 23.9579 28.2709 23.9579C27.7999 23.9579 27.4176 24.3399 27.4176 24.8111V25.3555C27.4176 25.8263 27.7999 26.2086 28.2709 26.2086C28.7419 26.2086 29.1241 25.8264 29.1241 25.3555V24.8111Z" fill="white"></path></svg> 